# xmcd CD database file
#
# Track frame offsets:
#	150
#	19160
#	35541
#	55191
#	73008
#	89336
#	106485
#	126918
#	145904
#	163431
#	182371
#	201302
#	218268
#	237193
#	256064
#	275457
#
# Disc length: 3916 seconds
#
# Revision: 0
# Processed by: cddbd v1.5.1PL0 Copyright (c) Steve Scherf et al.
# Submitted via: CDex 1.51
#
DISCID=e50f4a10
DTITLE=Various Artist - Y Sigue El Merengue
DYEAR=1900
DGENRE=Merengue
TTITLE0=Grupo Manía - Te Veo Venir Soledad
TTITLE1=Kumbia Kings - Fuego
TTITLE2=Noelia - Candela
TTITLE3=Los Sabrosos - Decir Te Quiero
TTITLE4=Grupo Mio - Para Mi Todo Acabó
TTITLE5=Alexander - Me Vas A Matar
TTITLE6=Las Nenas Del Swing - Chicle Bomba
TTITLE7=Zafra Negra - Pa La Rumba Voy
TTITLE8=La Clave - Déjame Libre
TTITLE9=Falsas Promesas
TTITLE10=Los Sabrosos - Niña Bonita
TTITLE11=La Barra - Piel De Niña
TTITLE12=Zafra Negra - Se Va El Amor
TTITLE13=Carlos Tamarindo - Cara Angelical
TTITLE14=Los Potros - La Almohada
TTITLE15=New Artist - 16. Track 16
EXTD=
EXTT0=
EXTT1=
EXTT2=
EXTT3=
EXTT4=
EXTT5=
EXTT6=
EXTT7=
EXTT8=
EXTT9=
EXTT10=
EXTT11=
EXTT12=
EXTT13=
EXTT14=
EXTT15=
PLAYORDER=
